<?xml version="1.0" encoding="UTF-8" standalone="no"?>
<!DOCTYPE svg PUBLIC "-//W3C//DTD SVG 1.1//EN" "http://www.w3.org/Graphics/SVG/1.1/DTD/svg11.dtd">
<svg width="100%" height="100%" viewBox="0 0 506 439" version="1.1" xmlns="http://www.w3.org/2000/svg" xmlns:xlink="http://www.w3.org/1999/xlink" xml:space="preserve" xmlns:serif="http://www.serif.com/" style="fill-rule:evenodd;clip-rule:evenodd;stroke-linejoin:round;stroke-miterlimit:2;">
    <g transform="matrix(1,0,0,1,-93,-55)">
        <path d="M574,391.98L297.21,115.21C283.679,101.702 265.015,93.335 244.413,93.335C205.62,93.335 174.12,123.015 170.475,160.839L126.002,205.323L173.104,205.323C185.17,276.94 231.096,336.933 294.004,368.323L294.004,466.675L331.34,466.675L331.34,383.007C343.402,386.507 355.856,389.077 368.668,390.499L368.668,466.683L406.004,466.683L406.004,391.984L574,391.98ZM315.51,186.29L409.194,279.985L387.342,279.985C346.178,279.985 312.67,246.505 312.67,205.321C312.666,198.688 313.838,192.391 315.51,186.29L315.51,186.29ZM207.08,167.989C207.08,147.427 223.814,130.677 244.408,130.677C254.361,130.677 263.752,134.556 270.806,141.615L286.372,157.181C279.349,171.779 275.325,188.06 275.325,205.326C275.325,267.084 325.563,317.326 387.325,317.326L446.513,317.326L483.849,354.654L393.751,354.654C290.831,354.654 207.081,270.904 207.081,167.994L207.08,167.989Z" style="fill-rule:nonzero;"/>
        <g id="v">
        </g>
        <g id="d">
        </g>
        <g id="a">
        </g>
        <g id="f">
        </g>
        <g id="c">
        </g>
        <g id="a1" serif:id="a">
        </g>
        <g id="n">
        </g>
        <g id="m">
        </g>
        <g id="l">
        </g>
        <g id="k">
        </g>
        <g id="f1" serif:id="f">
        </g>
        <g id="e">
        </g>
        <g id="j">
        </g>
        <g id="i">
        </g>
        <g id="h">
        </g>
        <g id="b">
        </g>
        <g id="i1" serif:id="i">
        </g>
        <g id="u">
        </g>
        <g id="g">
        </g>
        <g id="j1" serif:id="j">
        </g>
        <g id="e1" serif:id="e">
        </g>
        <g id="t">
        </g>
        <g id="d1" serif:id="d">
        </g>
        <g id="b1" serif:id="b">
        </g>
        <g id="s">
        </g>
        <g id="c1" serif:id="c">
        </g>
        <g id="g1" serif:id="g">
        </g>
        <g id="a2" serif:id="a">
        </g>
        <g id="r">
        </g>
        <g id="b2" serif:id="b">
        </g>
        <g id="q">
        </g>
        <g id="e2" serif:id="e">
        </g>
        <g id="h1" serif:id="h">
        </g>
        <g id="d2" serif:id="d">
        </g>
        <g id="b3" serif:id="b">
        </g>
        <g id="p">
        </g>
        <g id="a3" serif:id="a">
        </g>
        <g id="o">
        </g>
        <g id="c2" serif:id="c">
        </g>
    </g>
</svg>
