<?xml version="1.0" encoding="UTF-8" standalone="no"?>
<!DOCTYPE svg PUBLIC "-//W3C//DTD SVG 1.1//EN" "http://www.w3.org/Graphics/SVG/1.1/DTD/svg11.dtd">
<svg width="100%" height="100%" viewBox="0 0 457 462" version="1.1" xmlns="http://www.w3.org/2000/svg" xmlns:xlink="http://www.w3.org/1999/xlink" xml:space="preserve" xmlns:serif="http://www.serif.com/" style="fill-rule:evenodd;clip-rule:evenodd;stroke-linejoin:round;stroke-miterlimit:2;">
    <g transform="matrix(1,0,0,1,-117,-49)">
        <path d="M350,104.72C365.68,104.72 378.559,117.599 378.559,133.279C378.559,148.959 365.68,161.838 350,161.838C334.32,161.838 321.441,148.959 321.441,133.279C321.441,117.603 334.32,104.72 350,104.72Z" style="fill-rule:nonzero;"/>
        <path d="M449.68,164.64L445.758,170.8C445.2,171.359 444.637,172.48 444.078,173.039L255.918,173.039L250.317,164.64L449.68,164.64Z" style="fill-rule:nonzero;"/>
        <rect x="156.8" y="164.64" width="8.398" height="8.398" style="fill-rule:nonzero;"/>
        <path d="M176.96,210.56L175.28,210.56C171.358,210.56 167.999,207.201 167.999,203.279L167.999,134.4C167.999,130.478 171.359,127.119 175.28,127.119L176.96,127.119C180.882,127.119 184.241,130.478 184.241,134.4L184.241,203.279C184.237,207.201 180.878,210.56 176.96,210.56Z" style="fill-rule:nonzero;"/>
        <path d="M202.72,203.28C202.72,207.202 199.361,210.561 195.439,210.561L193.759,210.561C189.837,210.561 186.478,207.202 186.478,203.28L186.482,134.397C186.482,130.475 189.841,127.116 193.763,127.116L195.443,127.116C199.365,127.116 202.724,130.475 202.724,134.397L202.724,175.838L202.72,203.28Z" style="fill-rule:nonzero;"/>
        <path d="M205.52,173.04L205.52,164.642L224.559,164.642L229.04,173.04L205.52,173.04Z" style="fill-rule:nonzero;"/>
        <path d="M470.96,173.04L475.441,164.642L494.479,164.642L494.479,173.04L470.96,173.04Z" style="fill-rule:nonzero;"/>
        <path d="M506.24,210.56L504.56,210.56C500.638,210.56 497.279,207.201 497.279,203.279L497.279,161.838L497.283,134.4C497.283,130.478 500.642,127.119 504.564,127.119L506.244,127.119C510.166,127.119 513.525,130.478 513.525,134.4L513.525,203.279C512.963,207.201 510.162,210.56 506.24,210.56L506.24,210.56Z" style="fill-rule:nonzero;"/>
        <path d="M532,203.28C532,207.202 528.641,210.561 524.719,210.561L523.039,210.561C519.117,210.561 515.758,207.202 515.758,203.28L515.762,134.397C515.762,130.475 519.121,127.116 523.043,127.116L524.723,127.116C528.645,127.116 532.004,130.475 532.004,134.397L532.004,175.838L532,203.28Z" style="fill-rule:nonzero;"/>
        <rect x="534.8" y="164.64" width="8.398" height="8.398" style="fill-rule:nonzero;"/>
        <path d="M472.08,151.76L470.4,150.639C467.041,148.401 463.119,149.518 460.881,152.877L460.322,153.436C454.721,162.397 451.924,165.756 447.443,172.475L445.205,175.834C442.404,180.315 438.486,185.912 433.443,193.756L427.283,202.717L399.283,175.838L300.162,175.838L272.162,202.717L254.24,175.838L245.279,161.838L239.119,152.877C236.88,149.518 232.958,148.955 229.599,150.639L227.919,151.76C224.56,153.998 223.998,157.92 225.681,160.721C238.001,183.119 254.24,210.561 262.079,225.119C263.759,228.478 267.118,230.72 271.04,231.279C274.962,231.838 278.321,230.72 281.681,228.478L307.443,207.197L313.603,271.037L282.244,325.357C277.205,334.318 274.963,344.396 276.084,354.478L288.963,455.278L311.924,452.477L310.803,363.997L350.002,305.759L389.201,363.997L388.642,451.919L411.603,454.72L424.482,353.92C425.603,343.842 423.924,333.201 418.322,324.799L386.963,270.479L386.963,269.921L393.123,206.64L418.885,227.921C421.686,230.159 425.604,231.28 429.526,230.722C433.448,230.163 436.245,227.921 438.487,224.561C446.886,210.561 462.565,183.12 474.885,160.163C476.561,157.359 475.444,153.441 472.081,151.761L472.08,151.76Z" style="fill-rule:nonzero;"/>
        <g id="s">
        </g>
        <g id="d">
        </g>
        <g id="a">
        </g>
        <g id="f">
        </g>
        <g id="c">
        </g>
        <g id="a1" serif:id="a">
        </g>
        <g id="e">
        </g>
        <g id="i">
        </g>
        <g id="h">
        </g>
        <g id="g">
        </g>
        <g id="b">
        </g>
        <g id="a2" serif:id="a">
        </g>
        <g id="e1" serif:id="e">
        </g>
        <g id="f1" serif:id="f">
        </g>
        <g id="r">
        </g>
        <g id="d1" serif:id="d">
        </g>
        <g id="b1" serif:id="b">
        </g>
        <g id="q">
        </g>
        <g id="c1" serif:id="c">
        </g>
        <g id="p">
        </g>
        <g id="a3" serif:id="a">
        </g>
        <g id="o">
        </g>
        <g id="b2" serif:id="b">
        </g>
        <g id="n">
        </g>
        <g id="m">
        </g>
        <g id="l">
        </g>
        <g id="d2" serif:id="d">
        </g>
        <g id="b3" serif:id="b">
        </g>
        <g id="k">
        </g>
        <g id="a4" serif:id="a">
        </g>
        <g id="j">
        </g>
        <g id="c2" serif:id="c">
        </g>
    </g>
</svg>
