<?xml version="1.0" encoding="UTF-8" standalone="no"?>
<!DOCTYPE svg PUBLIC "-//W3C//DTD SVG 1.1//EN" "http://www.w3.org/Graphics/SVG/1.1/DTD/svg11.dtd">
<svg width="100%" height="100%" viewBox="0 0 553 507" version="1.1" xmlns="http://www.w3.org/2000/svg" xmlns:xlink="http://www.w3.org/1999/xlink" xml:space="preserve" xmlns:serif="http://www.serif.com/" style="fill-rule:evenodd;clip-rule:evenodd;stroke-linejoin:round;stroke-miterlimit:2;">
    <g transform="matrix(1,0,0,1,-73,-31)">
        <path d="M566.12,39.211L133.88,39.211C107.536,39.211 86.099,60.645 86.099,86.992L86.103,357.112C86.103,383.456 107.537,404.893 133.884,404.893L261.224,404.893L261.224,450.252L209.966,450.252C186.806,450.252 167.966,466.072 167.966,485.522L167.966,512.28C167.966,516.983 171.775,520.792 176.478,520.792L523.508,520.792C528.211,520.792 532.019,516.983 532.019,512.28L532.019,485.522C532.019,466.073 513.179,450.252 490.019,450.252L438.761,450.252L438.761,404.893L566.101,404.893C592.445,404.893 613.882,383.459 613.882,357.112L613.882,86.992C613.894,60.644 592.46,39.211 566.12,39.211ZM514.999,485.521L514.999,503.763L184.999,503.763L184.999,485.521C184.999,475.634 196.433,467.279 209.972,467.279L490.032,467.279C503.563,467.279 514.997,475.635 514.997,485.521L514.999,485.521ZM421.749,450.251L278.249,450.251L278.249,404.892L421.749,404.892L421.749,450.251ZM596.869,357.118C596.869,374.075 583.072,387.872 566.115,387.872L133.885,387.872C116.928,387.872 103.131,374.075 103.131,357.118L103.135,86.998C103.135,70.041 116.932,56.244 133.889,56.244L566.119,56.244C583.076,56.244 596.873,70.041 596.873,86.998L596.869,357.118ZM567.099,72.048L132.899,72.048C125.204,72.048 118.938,78.306 118.938,86.009L118.938,344.439C118.938,349.142 122.747,352.951 127.45,352.951L572.54,352.951C577.243,352.951 581.051,349.142 581.051,344.439L581.051,86.009C581.051,78.31 574.794,72.048 567.09,72.048L567.099,72.048ZM564.037,335.928L135.967,335.928L135.967,89.068L564.037,89.068L564.037,335.928ZM275.547,327.42C338.914,327.42 390.467,275.865 390.467,212.5C390.467,149.133 338.912,97.58 275.547,97.58C212.18,97.58 160.627,149.135 160.627,212.5C160.627,275.867 212.178,327.42 275.547,327.42ZM200.617,149.57C205.679,152.316 211.105,154.758 216.844,156.867C210.019,171.679 205.965,187.672 204.938,203.988L178.016,203.988C179.805,183.367 188.008,164.562 200.618,149.57L200.617,149.57ZM373.067,203.988L346.145,203.988C345.117,187.672 341.07,171.676 334.239,156.867C339.985,154.762 345.402,152.316 350.465,149.57C363.083,164.562 371.281,183.367 373.067,203.988L373.067,203.988ZM350.473,275.429C345.422,272.695 340.012,270.253 334.289,268.148C340.996,253.523 345.074,237.605 346.137,221.015L373.071,221.015C371.281,241.632 363.082,260.445 350.473,275.429L350.473,275.429ZM284.063,275.726C292.445,276.128 300.739,277.132 308.708,278.73C301.958,288.425 293.676,297.109 284.063,304.484L284.063,275.726ZM284.063,258.582L284.063,221.015L329.063,221.015C327.973,235.913 324.109,250.183 317.797,263.203C307.179,260.656 295.84,259.09 284.063,258.582ZM284.063,203.995L284.063,166.421C295.864,165.909 307.227,164.343 317.86,161.788C324.184,174.827 328.04,189.1 329.09,203.991L284.063,203.995ZM284.063,149.276L284.063,120.51C293.703,127.889 302.001,136.576 308.762,146.26C300.769,147.866 292.457,148.869 284.063,149.276L284.063,149.276ZM267.036,149.276C258.637,148.874 250.329,147.87 242.337,146.264C249.09,136.581 257.392,127.893 267.036,120.514L267.036,149.276ZM267.036,166.417L267.036,203.983L222.009,203.983C223.059,189.092 226.915,174.815 233.239,161.78C243.872,164.339 255.235,165.909 267.036,166.417ZM267.036,221.015L267.036,258.581C255.259,259.089 243.919,260.651 233.302,263.202C226.997,250.182 223.13,235.913 222.036,221.014L267.036,221.015ZM267.036,275.726L267.036,304.484C257.414,297.109 249.134,288.425 242.391,278.73C250.355,277.128 258.653,276.128 267.036,275.726L267.036,275.726ZM241.274,304.199C231.059,300.367 221.645,294.883 213.368,288.058C217.071,286.308 220.973,284.746 225.036,283.363C229.719,290.8 235.149,297.785 241.274,304.199L241.274,304.199ZM326.055,283.363C330.113,284.746 334.015,286.308 337.723,288.058C329.445,294.883 320.032,300.367 309.817,304.199C315.945,297.785 321.372,290.801 326.055,283.363L326.055,283.363ZM325.98,141.663C321.238,134.155 315.761,127.143 309.64,120.733C319.925,124.565 329.398,130.077 337.722,136.936C333.996,138.706 330.07,140.276 325.98,141.663L325.98,141.663ZM225.12,141.663C221.03,140.276 217.105,138.698 213.378,136.944C221.702,130.085 231.175,124.573 241.46,120.741C235.339,127.151 229.855,134.163 225.12,141.663L225.12,141.663ZM204.96,221.018C206.015,237.616 210.093,253.534 216.808,268.151C211.082,270.257 205.679,272.694 200.624,275.432C188.011,260.448 179.812,241.635 178.026,221.018L204.96,221.018ZM465.13,164.565C461.658,161.393 461.419,156.006 464.587,152.538C467.759,149.065 473.146,148.827 476.614,151.995C494.93,168.729 505.024,191.05 505.024,214.831C505.024,238.612 494.934,260.925 476.614,277.667C474.982,279.159 472.923,279.894 470.876,279.894C468.567,279.894 466.267,278.96 464.587,277.124C461.415,273.652 461.657,268.269 465.13,265.097C479.876,251.62 487.997,233.773 487.997,214.831C487.997,195.89 479.876,178.042 465.13,164.565L465.13,164.565ZM453.626,214.831C453.626,204.28 449.083,194.315 440.829,186.772C437.357,183.6 437.118,178.213 440.286,174.745C443.458,171.272 448.845,171.034 452.313,174.202C464.141,185.011 470.653,199.436 470.653,214.831C470.653,230.226 464.138,244.651 452.313,255.46C450.681,256.952 448.622,257.687 446.575,257.687C444.266,257.687 441.966,256.753 440.286,254.917C437.114,251.445 437.356,246.062 440.829,242.89C449.083,235.355 453.626,225.382 453.626,214.831L453.626,214.831ZM489.431,142.362C485.959,139.19 485.72,133.803 488.888,130.335C492.06,126.862 497.447,126.624 500.915,129.792C525.724,152.46 539.392,182.667 539.392,214.831C539.392,246.995 525.732,277.202 500.915,299.87C499.283,301.362 497.224,302.097 495.177,302.097C492.868,302.097 490.568,301.163 488.888,299.327C485.716,295.855 485.958,290.472 489.431,287.3C510.669,267.898 522.365,242.163 522.365,214.831C522.369,187.503 510.67,161.765 489.431,142.362L489.431,142.362ZM404.603,214.831C404.603,206.604 411.271,199.933 419.501,199.933C427.732,199.933 434.399,206.605 434.399,214.831C434.399,223.058 427.731,229.729 419.501,229.729C411.271,229.729 404.603,223.061 404.603,214.831Z"/>
        <g id="t">
        </g>
        <g id="c">
        </g>
        <g id="b">
        </g>
        <g id="m">
        </g>
        <g id="d">
        </g>
        <g id="b1" serif:id="b">
        </g>
        <g id="l">
        </g>
        <g id="k">
        </g>
        <g id="j">
        </g>
        <g id="i">
        </g>
        <g id="s">
        </g>
        <g id="a">
        </g>
        <g id="h">
        </g>
        <g id="g">
        </g>
        <g id="c1" serif:id="c">
        </g>
        <g id="f">
        </g>
        <g id="a1" serif:id="a">
        </g>
        <g id="e">
        </g>
        <g id="a2" serif:id="a">
        </g>
        <g id="r">
        </g>
        <g id="c2" serif:id="c">
        </g>
        <g id="a3" serif:id="a">
        </g>
        <g id="e1" serif:id="e">
        </g>
        <g id="d1" serif:id="d">
        </g>
        <g id="q">
        </g>
        <g id="b2" serif:id="b">
        </g>
        <g id="p">
        </g>
        <g id="a4" serif:id="a">
        </g>
        <g id="g1" serif:id="g">
        </g>
        <g id="f1" serif:id="f">
        </g>
        <g id="h1" serif:id="h">
        </g>
        <g id="c3" serif:id="c">
        </g>
        <g id="a5" serif:id="a">
        </g>
        <g id="o">
        </g>
        <g id="b3" serif:id="b">
        </g>
        <g id="n">
        </g>
        <g id="d2" serif:id="d">
        </g>
    </g>
</svg>
