<?xml version="1.0" encoding="UTF-8" standalone="no"?>
<!DOCTYPE svg PUBLIC "-//W3C//DTD SVG 1.1//EN" "http://www.w3.org/Graphics/SVG/1.1/DTD/svg11.dtd">
<svg width="100%" height="100%" viewBox="0 0 577 481" version="1.1" xmlns="http://www.w3.org/2000/svg" xmlns:xlink="http://www.w3.org/1999/xlink" xml:space="preserve" xmlns:serif="http://www.serif.com/" style="fill-rule:evenodd;clip-rule:evenodd;stroke-linejoin:round;stroke-miterlimit:2;">
    <g transform="matrix(1,0,0,1,-70,-27)">
        <path d="M517.5,154C520.496,153.961 523.379,155.125 525.512,157.231C527.641,159.332 528.84,162.203 528.84,165.199C528.84,168.195 527.641,171.063 525.512,173.168C523.379,175.274 520.496,176.438 517.5,176.399L181.5,176.399C178.504,176.438 175.621,175.274 173.488,173.168C171.359,171.063 170.16,168.195 170.16,165.199C170.16,162.203 171.359,159.332 173.488,157.231C175.621,155.125 178.504,153.961 181.5,154L517.5,154Z"/>
        <path d="M517.5,205.07C520.496,205.035 523.379,206.195 525.512,208.301C527.641,210.406 528.84,213.277 528.84,216.269C528.84,219.265 527.641,222.136 525.512,224.238C523.379,226.344 520.496,227.508 517.5,227.469L237,227.469C234.004,227.508 231.121,226.344 228.988,224.238C226.859,222.136 225.66,219.265 225.66,216.269C225.66,213.277 226.859,210.406 228.988,208.301C231.121,206.195 234.004,205.035 237,205.07L517.5,205.07Z"/>
        <path d="M517.5,258.27C520.492,258.235 523.379,259.399 525.508,261.504C527.637,263.61 528.836,266.477 528.836,269.469C528.836,272.465 527.637,275.333 525.508,277.438C523.379,279.544 520.492,280.708 517.5,280.669L292.44,280.669C289.444,280.708 286.561,279.544 284.432,277.438C282.303,275.333 281.104,272.465 281.104,269.469C281.104,266.477 282.303,263.61 284.432,261.504C286.561,259.399 289.444,258.235 292.44,258.27L517.5,258.27Z"/>
        <path d="M517.5,313.71C520.496,313.675 523.379,314.835 525.508,316.941C527.641,319.046 528.84,321.917 528.84,324.909C528.84,327.905 527.641,330.773 525.508,332.878C523.379,334.984 520.496,336.148 517.5,336.109L234.87,336.109C231.878,336.148 228.991,334.984 226.862,332.878C224.729,330.773 223.53,327.905 223.53,324.909C223.53,321.917 224.729,319.046 226.862,316.941C228.991,314.835 231.878,313.675 234.87,313.71L517.5,313.71Z"/>
        <path d="M585.2,67.262C591.384,67.262 596.399,72.274 596.399,78.457L596.399,399.227C596.395,405.411 591.383,410.422 585.2,410.422L515.481,410.422L528.446,479.477C529.294,484.008 527.282,488.594 523.376,491.039C519.47,493.48 514.462,493.281 510.763,490.535L402.913,410.422L114.803,410.422C108.619,410.422 103.604,405.41 103.604,399.227L103.604,78.457C103.604,72.273 108.619,67.258 114.803,67.258L585.203,67.258L585.2,67.262ZM574.001,89.66L126.001,89.66L126.001,388.03L406.621,388.03L406.625,388.026C409.027,388.026 411.371,388.803 413.301,390.237L501.164,455.503L490.984,401.296L490.984,401.292C490.37,398.019 491.245,394.64 493.374,392.077C495.503,389.511 498.66,388.026 501.992,388.026L574.012,388.026L574.012,89.656L574.001,89.66Z"/>
        <g id="v">
        </g>
        <g id="d">
        </g>
        <g id="a">
        </g>
        <g id="c">
        </g>
        <g id="b">
        </g>
        <g id="a1" serif:id="a">
        </g>
        <g id="k">
        </g>
        <g id="j">
        </g>
        <g id="f">
        </g>
        <g id="i">
        </g>
        <g id="u">
        </g>
        <g id="h">
        </g>
        <g id="t">
        </g>
        <g id="h1" serif:id="h">
        </g>
        <g id="g">
        </g>
        <g id="c1" serif:id="c">
        </g>
        <g id="f1" serif:id="f">
        </g>
        <g id="c2" serif:id="c">
        </g>
        <g id="s">
        </g>
        <g id="d1" serif:id="d">
        </g>
        <g id="e">
        </g>
        <g id="r">
        </g>
        <g id="b1" serif:id="b">
        </g>
        <g id="q">
        </g>
        <g id="a2" serif:id="a">
        </g>
        <g id="p">
        </g>
        <g id="e1" serif:id="e">
        </g>
        <g id="o">
        </g>
        <g id="n">
        </g>
        <g id="m">
        </g>
        <g id="d2" serif:id="d">
        </g>
        <g id="e2" serif:id="e">
        </g>
        <g id="g1" serif:id="g">
        </g>
        <g id="a3" serif:id="a">
        </g>
        <g id="l">
        </g>
        <g id="b2" serif:id="b">
        </g>
    </g>
</svg>
