<?xml version="1.0" encoding="UTF-8" standalone="no"?>
<!DOCTYPE svg PUBLIC "-//W3C//DTD SVG 1.1//EN" "http://www.w3.org/Graphics/SVG/1.1/DTD/svg11.dtd">
<svg width="100%" height="100%" viewBox="0 0 594 422" version="1.1" xmlns="http://www.w3.org/2000/svg" xmlns:xlink="http://www.w3.org/1999/xlink" xml:space="preserve" xmlns:serif="http://www.serif.com/" style="fill-rule:evenodd;clip-rule:evenodd;stroke-linejoin:round;stroke-miterlimit:2;">
    <g transform="matrix(1,0,0,1,-54,-70)">
        <path d="M611.46,131.6L257.32,131.6C253.062,131.6 249.48,134.791 248.976,138.991C248.082,146.663 241.64,152.432 233.968,152.432C226.296,152.432 219.913,146.662 219.015,138.991C218.511,134.791 214.925,131.6 210.671,131.6L89.211,131.6C84.563,131.6 80.813,135.354 80.813,139.998L80.813,220.357C80.813,224.838 84.34,228.533 88.766,228.756C116.094,230.213 137.43,252.666 137.43,279.994C137.43,307.322 116.094,329.779 88.766,331.232C84.34,331.454 80.813,335.154 80.813,339.63L80.813,419.989C80.813,424.638 84.567,428.388 89.211,428.388L210.671,428.395C214.929,428.395 218.511,425.204 219.015,421.005C219.91,413.333 226.351,407.564 233.968,407.564C241.585,407.564 248.081,413.333 248.976,421.005C249.48,425.204 253.066,428.395 257.32,428.395L611.46,428.395C616.108,428.395 619.858,424.642 619.858,419.997L619.858,139.997C619.858,135.349 616.105,131.599 611.46,131.599L611.46,131.6ZM243.6,392C243.6,392 243.6,392.168 243.545,392.281C243.491,395.586 241.475,398.387 238.616,399.672C237.553,400.121 236.432,400.398 235.202,400.398C233.803,400.398 232.514,400.008 231.393,399.445C228.651,398.047 226.799,395.246 226.799,391.996L226.799,377.996C226.799,373.348 230.553,369.598 235.198,369.598C239.846,369.598 243.596,373.352 243.596,377.996L243.596,391.996L243.6,392ZM243.6,331.855C243.6,336.503 239.846,340.253 235.202,340.253C230.553,340.253 226.803,336.5 226.803,331.855L226.803,303.07C226.803,298.422 230.557,294.672 235.202,294.672C239.85,294.672 243.6,298.426 243.6,303.07L243.6,331.855ZM243.6,256.925C243.6,261.573 239.846,265.323 235.202,265.323C230.553,265.323 226.803,261.57 226.803,256.925L226.803,228.14C226.803,223.492 230.557,219.742 235.202,219.742C239.85,219.742 243.6,223.496 243.6,228.14L243.6,256.925ZM243.6,181.995C243.6,186.643 239.846,190.393 235.202,190.393C230.553,190.393 226.803,186.64 226.803,181.995L226.803,167.995C226.803,164.749 228.651,161.948 231.397,160.546C232.518,159.987 233.803,159.593 235.206,159.593C236.436,159.593 237.557,159.874 238.62,160.319C241.475,161.608 243.491,164.409 243.549,167.71C243.604,167.823 243.604,167.878 243.604,167.991L243.604,181.991L243.6,181.995ZM459.37,340.195L416.14,312.14L372.91,340.195L386.293,290.41L346.195,257.984L397.66,255.296L416.14,207.192L434.62,255.296L486.085,257.984L446.046,290.41L459.374,340.195L459.37,340.195Z" style="fill-rule:nonzero;"/>
        <g id="r">
        </g>
        <g id="a">
        </g>
        <g id="b">
        </g>
        <g id="j">
        </g>
        <g id="d">
        </g>
        <g id="b1" serif:id="b">
        </g>
        <g id="i">
        </g>
        <g id="h">
        </g>
        <g id="g">
        </g>
        <g id="c">
        </g>
        <g id="f">
        </g>
        <g id="a1" serif:id="a">
        </g>
        <g id="c1" serif:id="c">
        </g>
        <g id="f1" serif:id="f">
        </g>
        <g id="a2" serif:id="a">
        </g>
        <g id="q">
        </g>
        <g id="a3" serif:id="a">
        </g>
        <g id="e">
        </g>
        <g id="c2" serif:id="c">
        </g>
        <g id="d1" serif:id="d">
        </g>
        <g id="p">
        </g>
        <g id="b2" serif:id="b">
        </g>
        <g id="o">
        </g>
        <g id="e1" serif:id="e">
        </g>
        <g id="f2" serif:id="f">
        </g>
        <g id="n">
        </g>
        <g id="m">
        </g>
        <g id="a4" serif:id="a">
        </g>
        <g id="e2" serif:id="e">
        </g>
        <g id="l">
        </g>
        <g id="b3" serif:id="b">
        </g>
        <g id="k">
        </g>
        <g id="d2" serif:id="d">
        </g>
    </g>
</svg>
