<?xml version="1.0" encoding="UTF-8" standalone="no"?>
<!DOCTYPE svg PUBLIC "-//W3C//DTD SVG 1.1//EN" "http://www.w3.org/Graphics/SVG/1.1/DTD/svg11.dtd">
<svg width="100%" height="100%" viewBox="0 0 700 564" version="1.1" xmlns="http://www.w3.org/2000/svg" xmlns:xlink="http://www.w3.org/1999/xlink" xml:space="preserve" xmlns:serif="http://www.serif.com/" style="fill-rule:evenodd;clip-rule:evenodd;stroke-linejoin:round;stroke-miterlimit:2;">
    <g>
        <path d="M476.2,99.238L490.798,31.492L511.853,36.027L497.255,103.773L476.2,99.238Z" style="fill-rule:nonzero;"/>
        <path d="M360.63,46.98L381.091,40.519L401.88,106.355L381.419,112.816L360.63,46.98Z" style="fill-rule:nonzero;"/>
        <path d="M256.55,122.14L271.054,106.218L322.167,152.777L307.663,168.699L256.55,122.14Z" style="fill-rule:nonzero;"/>
        <path d="M581.73,408.5L596.238,392.582L647.336,439.156L632.828,455.074L581.73,408.5Z" style="fill-rule:nonzero;"/>
        <path d="M628,326.14L632.582,305.093L700.035,319.777L695.453,340.824L628,326.14Z" style="fill-rule:nonzero;"/>
        <path d="M620.48,211.08L686.183,189.908L692.789,210.408L627.086,231.58L620.48,211.08Z" style="fill-rule:nonzero;"/>
        <path d="M563.25,135.79L609.621,84.435L625.605,98.869L579.234,150.224L563.25,135.79Z" style="fill-rule:nonzero;"/>
        <path d="M516.92,423.25L507.928,403.703C545.678,386.515 573.455,352.961 583.299,312.668C593.139,272.371 583.959,229.789 558.385,197.128C532.815,164.472 493.678,145.347 452.195,145.237C409.375,145.042 369.066,165.436 343.855,200.053L326.57,187.237C355.621,149.022 400.636,126.292 448.64,125.604C496.64,124.916 542.288,146.342 572.43,183.709C602.567,221.076 613.844,270.229 603.004,316.999C592.168,363.769 560.422,402.948 516.918,423.249L516.92,423.25Z" style="fill-rule:nonzero;"/>
        <path d="M517.19,541.12L101.07,541.12C67.394,540.999 35.968,524.186 17.183,496.237C-1.602,468.288 -5.297,432.839 7.312,401.612C19.921,370.385 47.195,347.448 80.124,340.382C82.62,288.566 110.288,241.241 154.218,213.652C198.144,186.058 252.788,181.675 300.548,201.922C348.314,222.168 383.165,264.481 393.88,315.242C400.017,314.172 406.232,313.633 412.458,313.629C442.103,313.726 470.497,325.582 491.411,346.586C512.325,367.594 524.056,396.039 524.028,425.684L524.028,428.32C541.653,432.481 556.266,444.746 563.419,461.382C570.575,478.019 569.427,497.062 560.325,512.718C551.22,528.374 535.239,538.792 517.243,540.804L517.19,541.12ZM499.745,518.182L508.143,519.42L511.108,519.42C523.518,519.162 534.897,512.459 541.135,501.729C547.377,490.999 547.577,477.791 541.663,466.877C535.752,455.967 524.581,448.92 512.183,448.287L500.445,447.912L501.843,436.283L501.847,436.279C502.257,432.705 502.472,429.111 502.491,425.509C502.745,397.212 489.636,370.454 467.128,353.306C444.616,336.158 415.335,330.626 388.124,338.388L376.226,341.779L374.558,329.502L374.554,329.502C368.402,282.908 338.82,242.709 296.163,222.982C253.511,203.252 203.722,206.736 164.233,232.216C124.741,257.696 101.049,301.626 101.448,348.626L101.448,359.396L91.917,360.525C64.675,363.705 40.968,380.63 29.116,405.365C17.264,430.099 18.925,459.185 33.519,482.408C48.109,505.631 73.593,519.748 101.019,519.803L499.479,519.803L499.745,518.182Z" style="fill-rule:nonzero;"/>
        <path d="M152.33,355.57L130.791,355.57C130.877,325.054 143.029,295.808 164.596,274.222C186.166,252.632 215.397,240.452 245.912,240.339L245.912,261.878C221.111,261.991 197.357,271.901 179.826,289.452C162.299,306.999 152.412,330.764 152.33,355.569L152.33,355.57Z" style="fill-rule:nonzero;"/>
        <g id="v">
        </g>
        <g id="d">
        </g>
        <g id="a">
        </g>
        <g id="e">
        </g>
        <g id="c">
        </g>
        <g id="a1" serif:id="a">
        </g>
        <g id="l">
        </g>
        <g id="k">
        </g>
        <g id="j">
        </g>
        <g id="i">
        </g>
        <g id="a2" serif:id="a">
        </g>
        <g id="h">
        </g>
        <g id="e1" serif:id="e">
        </g>
        <g id="g">
        </g>
        <g id="u">
        </g>
        <g id="b">
        </g>
        <g id="t">
        </g>
        <g id="s">
        </g>
        <g id="f">
        </g>
        <g id="r">
        </g>
        <g id="d1" serif:id="d">
        </g>
        <g id="b1" serif:id="b">
        </g>
        <g id="q">
        </g>
        <g id="c1" serif:id="c">
        </g>
        <g id="p">
        </g>
        <g id="a3" serif:id="a">
        </g>
        <g id="o">
        </g>
        <g id="b2" serif:id="b">
        </g>
        <g id="n">
        </g>
        <g id="g1" serif:id="g">
        </g>
        <g id="m">
        </g>
        <g id="d2" serif:id="d">
        </g>
        <g id="b3" serif:id="b">
        </g>
        <g id="h1" serif:id="h">
        </g>
        <g id="a4" serif:id="a">
        </g>
        <g id="f1" serif:id="f">
        </g>
        <g id="c2" serif:id="c">
        </g>
    </g>
</svg>
