<?xml version="1.0" encoding="UTF-8" standalone="no"?>
<!DOCTYPE svg PUBLIC "-//W3C//DTD SVG 1.1//EN" "http://www.w3.org/Graphics/SVG/1.1/DTD/svg11.dtd">
<svg width="100%" height="100%" viewBox="0 0 628 549" version="1.1" xmlns="http://www.w3.org/2000/svg" xmlns:xlink="http://www.w3.org/1999/xlink" xml:space="preserve" xmlns:serif="http://www.serif.com/" style="fill-rule:evenodd;clip-rule:evenodd;stroke-linejoin:round;stroke-miterlimit:2;">
    <g>
        <path d="M603.37,182.05C603.37,181.937 603.339,181.831 603.335,181.718C603.323,181.288 603.268,180.866 603.206,180.441C603.163,180.132 603.128,179.827 603.061,179.527C602.968,179.113 602.827,178.714 602.682,178.312C602.581,178.023 602.487,177.73 602.362,177.449C602.19,177.07 601.975,176.71 601.761,176.343C601.597,176.07 601.444,175.796 601.261,175.538C601.175,175.421 601.124,175.288 601.034,175.171C600.854,174.937 600.632,174.753 600.436,174.538C600.237,174.32 600.046,174.101 599.831,173.898C599.491,173.574 599.132,173.288 598.757,173.011C598.554,172.863 598.354,172.71 598.14,172.577C597.729,172.316 597.308,172.093 596.87,171.89C596.651,171.788 596.436,171.687 596.21,171.597C595.745,171.413 595.268,171.273 594.788,171.156C594.565,171.101 594.347,171.046 594.12,171.003C593.585,170.906 593.05,170.859 592.507,170.839C592.374,170.835 592.245,170.8 592.108,170.8L519.733,170.796L519.733,40.096C519.733,33.881 514.694,28.842 508.479,28.842L191.589,28.842C185.374,28.842 180.335,33.881 180.335,40.096L180.335,170.796L107.886,170.796C107.753,170.796 107.632,170.831 107.503,170.835C106.96,170.855 106.425,170.902 105.894,170.999C105.652,171.042 105.418,171.105 105.183,171.163C104.726,171.277 104.277,171.409 103.832,171.581C103.57,171.683 103.32,171.8 103.066,171.921C102.675,172.109 102.296,172.308 101.925,172.542C101.656,172.714 101.402,172.902 101.144,173.093C100.835,173.327 100.535,173.562 100.25,173.831C99.953,174.109 99.683,174.409 99.417,174.714C99.277,174.874 99.117,175.003 98.984,175.175C98.921,175.257 98.882,175.351 98.824,175.433C98.546,175.808 98.316,176.21 98.085,176.62C97.957,176.855 97.812,177.085 97.703,177.327C97.503,177.753 97.355,178.202 97.21,178.655C97.132,178.902 97.042,179.144 96.98,179.394C96.871,179.847 96.812,180.312 96.757,180.78C96.73,181.042 96.687,181.304 96.679,181.57C96.671,181.734 96.632,181.886 96.632,182.05L96.632,519.89C96.632,520.003 96.664,520.109 96.667,520.222C96.679,520.632 96.734,521.035 96.792,521.445C96.839,521.781 96.875,522.117 96.953,522.441C97.035,522.8 97.16,523.148 97.281,523.499C97.402,523.855 97.515,524.206 97.667,524.546C97.804,524.847 97.976,525.132 98.144,525.425C98.351,525.789 98.554,526.144 98.8,526.48C98.867,526.57 98.906,526.667 98.972,526.757C99.082,526.902 99.226,526.999 99.339,527.136C99.695,527.558 100.074,527.949 100.488,528.316C100.714,528.515 100.941,528.71 101.183,528.89C101.597,529.199 102.039,529.468 102.496,529.718C102.746,529.855 102.984,530.003 103.238,530.121C103.769,530.363 104.324,530.542 104.894,530.699C105.097,530.753 105.288,530.839 105.492,530.882C106.269,531.05 107.066,531.152 107.894,531.152L592.114,531.152C592.938,531.152 593.739,531.05 594.516,530.882C594.723,530.835 594.919,530.749 595.126,530.695C595.692,530.539 596.247,530.359 596.77,530.121C597.028,530.003 597.27,529.851 597.52,529.714C597.973,529.464 598.411,529.199 598.821,528.89C599.067,528.706 599.297,528.511 599.528,528.308C599.934,527.949 600.305,527.566 600.653,527.152C600.774,527.011 600.922,526.906 601.036,526.757C601.106,526.667 601.149,526.562 601.215,526.468C601.45,526.144 601.645,525.8 601.844,525.453C602.016,525.148 602.2,524.851 602.34,524.539C602.489,524.21 602.598,523.867 602.715,523.523C602.84,523.164 602.965,522.804 603.051,522.437C603.126,522.117 603.161,521.789 603.208,521.457C603.266,521.043 603.321,520.636 603.333,520.222C603.337,520.109 603.364,520.007 603.364,519.894L603.37,182.05ZM119.15,204.862L184.92,255.424C185.084,255.545 185.232,255.682 185.4,255.795L309.16,350.94L119.15,497.04L119.15,204.862ZM327.63,365.132L343.161,377.07C345.184,378.625 347.602,379.398 350.02,379.398C352.438,379.398 354.856,378.625 356.88,377.07L372.4,365.136L559.02,508.626L141,508.626L327.63,365.132ZM390.864,350.944L514.754,255.702C514.797,255.675 514.832,255.64 514.875,255.612L580.867,204.878L580.867,497.038L390.864,350.944ZM558.994,193.304L519.744,223.48L519.744,193.304L558.994,193.304ZM202.854,51.354L497.234,51.354L497.234,240.784L350.024,353.954L202.864,240.824L202.854,51.354ZM180.346,223.514L141.049,193.303L180.346,193.303L180.346,223.514Z" style="fill-rule:nonzero;"/>
        <path d="M295.8,242.48L295.8,286.523C295.8,292.738 300.839,297.773 307.054,297.773L405.464,297.773C411.679,297.773 416.718,292.738 416.718,286.523L416.718,242.48C452.402,230.363 471.21,205.687 471.21,170.644C471.21,113.105 419.64,66.294 356.26,66.294C292.877,66.29 241.31,113.106 241.31,170.644C241.31,205.683 260.119,230.363 295.802,242.48L295.8,242.48ZM356.257,88.8C407.234,88.8 448.702,125.515 448.702,170.644C448.702,197.777 433.612,214.992 402.561,223.281C402.334,223.34 402.135,223.453 401.916,223.523C401.518,223.656 401.123,223.789 400.745,223.965C400.424,224.113 400.131,224.285 399.831,224.461C399.506,224.648 399.186,224.84 398.881,225.058C398.584,225.273 398.311,225.511 398.041,225.754C397.772,225.992 397.506,226.23 397.264,226.492C397.018,226.754 396.803,227.031 396.584,227.316C396.358,227.609 396.139,227.898 395.944,228.211C395.76,228.504 395.604,228.812 395.448,229.121C395.28,229.457 395.116,229.793 394.979,230.144C394.85,230.48 394.756,230.828 394.659,231.179C394.565,231.527 394.467,231.867 394.405,232.226C394.334,232.625 394.307,233.031 394.284,233.437C394.268,233.676 394.213,233.902 394.213,234.148L394.213,275.261L383.748,275.261L383.748,239.179C383.748,232.964 378.709,227.925 372.494,227.925C366.279,227.925 361.24,232.964 361.24,239.179L361.24,275.261L351.22,275.261L351.22,239.179C351.22,232.964 346.181,227.925 339.966,227.925C333.751,227.925 328.712,232.964 328.712,239.179L328.712,275.261L318.314,275.261L318.314,234.148C318.314,233.902 318.256,233.672 318.244,233.433C318.217,233.027 318.193,232.625 318.123,232.226C318.06,231.871 317.967,231.531 317.873,231.187C317.775,230.832 317.678,230.484 317.549,230.14C317.416,229.793 317.252,229.461 317.088,229.133C316.928,228.816 316.771,228.504 316.584,228.203C316.392,227.894 316.178,227.609 315.955,227.324C315.732,227.035 315.51,226.75 315.26,226.484C315.017,226.226 314.76,225.996 314.498,225.761C314.221,225.515 313.943,225.273 313.642,225.054C313.346,224.84 313.029,224.656 312.713,224.468C312.408,224.289 312.107,224.113 311.779,223.961C311.408,223.789 311.017,223.656 310.627,223.523C310.404,223.449 310.201,223.336 309.971,223.277C278.92,214.988 263.83,197.769 263.83,170.64C263.814,125.515 305.283,88.8 356.256,88.8L356.257,88.8Z" style="fill-rule:nonzero;"/>
        <path d="M349.19,163.89C353.202,180.874 342.678,197.898 325.69,201.91C308.702,205.922 291.678,195.398 287.67,178.41C283.658,161.422 294.178,144.402 311.166,140.39C328.154,136.378 345.178,146.902 349.189,163.89" style="fill-rule:nonzero;"/>
        <path d="M425.7,171.15C425.7,188.607 411.548,202.755 394.095,202.755C376.638,202.755 362.49,188.607 362.49,171.15C362.49,153.697 376.638,139.545 394.095,139.545C411.548,139.545 425.7,153.697 425.7,171.15" style="fill-rule:nonzero;"/>
        <g id="u">
        </g>
        <g id="d">
        </g>
        <g id="a">
        </g>
        <g id="k">
        </g>
        <g id="c">
        </g>
        <g id="a1" serif:id="a">
        </g>
        <g id="j">
        </g>
        <g id="i">
        </g>
        <g id="h">
        </g>
        <g id="g">
        </g>
        <g id="a2" serif:id="a">
        </g>
        <g id="f">
        </g>
        <g id="f1" serif:id="f">
        </g>
        <g id="b">
        </g>
        <g id="t">
        </g>
        <g id="a3" serif:id="a">
        </g>
        <g id="e">
        </g>
        <g id="s">
        </g>
        <g id="d1" serif:id="d">
        </g>
        <g id="b1" serif:id="b">
        </g>
        <g id="r">
        </g>
        <g id="c1" serif:id="c">
        </g>
        <g id="q">
        </g>
        <g id="a4" serif:id="a">
        </g>
        <g id="p">
        </g>
        <g id="b2" serif:id="b">
        </g>
        <g id="o">
        </g>
        <g id="e1" serif:id="e">
        </g>
        <g id="n">
        </g>
        <g id="d2" serif:id="d">
        </g>
        <g id="b3" serif:id="b">
        </g>
        <g id="m">
        </g>
        <g id="a5" serif:id="a">
        </g>
        <g id="l">
        </g>
        <g id="c2" serif:id="c">
        </g>
    </g>
</svg>
