<?xml version="1.0" encoding="UTF-8" standalone="no"?>
<!DOCTYPE svg PUBLIC "-//W3C//DTD SVG 1.1//EN" "http://www.w3.org/Graphics/SVG/1.1/DTD/svg11.dtd">
<svg width="100%" height="100%" viewBox="0 0 445 555" version="1.1" xmlns="http://www.w3.org/2000/svg" xmlns:xlink="http://www.w3.org/1999/xlink" xml:space="preserve" xmlns:serif="http://www.serif.com/" style="fill-rule:evenodd;clip-rule:evenodd;stroke-linejoin:round;stroke-miterlimit:2;">
    <g transform="matrix(1,0,0,1,-127,-4)">
        <path d="M522.48,135.41L419.33,135.41L419.33,33.61L522.48,135.41Z" style="fill-rule:nonzero;"/>
        <path d="M522.48,146.61L419.33,146.61C413.17,146.61 408.131,141.571 408.131,135.411L408.131,33.601C408.131,29.121 410.819,24.976 414.963,23.296C419.108,21.503 423.924,22.511 427.17,25.648L530.32,127.458C533.566,130.594 534.578,135.52 532.785,139.665C531.105,143.809 527.07,146.61 522.48,146.61L522.48,146.61ZM430.527,124.208L495.152,124.208L430.527,60.368L430.527,124.208Z" style="fill-rule:nonzero;"/>
        <path d="M298.26,266.11L319.205,266.11C331.525,266.11 341.603,256.032 341.603,243.712C341.603,231.392 331.525,221.314 319.205,221.314L298.26,221.314C258.612,221.314 226.358,253.572 226.358,293.216L226.358,326.255C226.358,365.903 258.616,398.157 298.26,398.157L319.205,398.157C331.525,398.157 341.603,388.079 341.603,375.759C341.603,363.439 331.525,353.361 319.205,353.361L298.26,353.361C283.252,353.361 271.155,341.154 271.155,326.256L271.155,293.217C271.042,278.319 283.249,266.112 298.26,266.112L298.26,266.11Z" style="fill-rule:nonzero;"/>
        <path d="M460.54,221.87C448.442,219.296 436.571,227.022 433.997,239.116L414.059,331.518L396.586,239.12C394.234,226.913 382.586,218.96 370.379,221.311C358.172,223.663 350.219,235.311 352.57,247.518L374.632,364.668C378.218,383.484 394.007,396.813 413.159,397.035L413.718,397.035C432.648,397.035 448.55,384.156 452.581,365.676L477.671,248.746C480.362,236.316 472.635,224.445 460.538,221.867L460.54,221.87Z" style="fill-rule:nonzero;"/>
        <path d="M538.05,118.38L476.448,58.571L435.007,17.692C430.64,13.325 424.702,11.083 418.769,11.196L177.526,11.196C165.206,11.196 155.128,21.274 155.128,33.594L155.128,529.754C155.128,542.074 165.206,552.152 177.526,552.152L522.486,552.152C534.806,552.152 544.884,542.074 544.884,529.754L544.884,134.394C544.884,128.347 542.42,122.523 538.052,118.378L538.05,118.38ZM467.941,113.005L441.843,113.005L441.843,87.243L445.202,90.602L467.941,113.005ZM384.722,507.355C282.692,507.355 199.922,424.585 199.922,322.555L199.926,55.995L396.936,55.995L396.936,135.401C396.936,147.721 407.014,157.799 419.334,157.799L500.084,157.803L500.084,507.353L384.722,507.355Z" style="fill-rule:nonzero;"/>
        <g id="t">
        </g>
        <g id="d">
        </g>
        <g id="a">
        </g>
        <g id="l">
        </g>
        <g id="c">
        </g>
        <g id="a1" serif:id="a">
        </g>
        <g id="f">
        </g>
        <g id="k">
        </g>
        <g id="j">
        </g>
        <g id="e">
        </g>
        <g id="i">
        </g>
        <g id="b">
        </g>
        <g id="h">
        </g>
        <g id="g">
        </g>
        <g id="e1" serif:id="e">
        </g>
        <g id="a2" serif:id="a">
        </g>
        <g id="s">
        </g>
        <g id="f1" serif:id="f">
        </g>
        <g id="g1" serif:id="g">
        </g>
        <g id="d1" serif:id="d">
        </g>
        <g id="b1" serif:id="b">
        </g>
        <g id="r">
        </g>
        <g id="c1" serif:id="c">
        </g>
        <g id="q">
        </g>
        <g id="a3" serif:id="a">
        </g>
        <g id="p">
        </g>
        <g id="b2" serif:id="b">
        </g>
        <g id="o">
        </g>
        <g id="h1" serif:id="h">
        </g>
        <g id="n">
        </g>
        <g id="d2" serif:id="d">
        </g>
        <g id="b3" serif:id="b">
        </g>
        <g id="m">
        </g>
        <g id="a4" serif:id="a">
        </g>
        <g id="i1" serif:id="i">
        </g>
        <g id="c2" serif:id="c">
        </g>
    </g>
</svg>
