<?xml version="1.0" encoding="UTF-8" standalone="no"?>
<!DOCTYPE svg PUBLIC "-//W3C//DTD SVG 1.1//EN" "http://www.w3.org/Graphics/SVG/1.1/DTD/svg11.dtd">
<svg width="100%" height="100%" viewBox="0 0 496 479" version="1.1" xmlns="http://www.w3.org/2000/svg" xmlns:xlink="http://www.w3.org/1999/xlink" xml:space="preserve" xmlns:serif="http://www.serif.com/" style="fill-rule:evenodd;clip-rule:evenodd;stroke-linejoin:round;stroke-miterlimit:2;">
    <g transform="matrix(1,0,0,1,-100,-39)">
        <path d="M350,504C226.24,504 126,403.76 126,280C126,156.24 226.24,56 350,56C473.76,56 574,156.24 574,280C574,403.76 473.76,504 350,504ZM350,78.4C238.56,78.4 148.4,168.56 148.4,280C148.4,391.44 238.56,481.6 350,481.6C461.44,481.6 551.6,391.44 551.6,280C551.6,168.56 461.44,78.4 350,78.4Z" style="fill-rule:nonzero;"/>
        <path d="M347.76,379.68C344.401,379.68 341.041,378 339.362,375.758L234.072,248.638C230.15,243.599 230.712,236.876 235.751,232.958C240.79,229.036 247.513,229.599 251.431,234.638L347.751,351.118L448.551,229.598C452.473,225.117 459.75,223.996 464.231,227.918C468.712,231.84 469.833,239.117 465.911,243.598L356.151,375.198C353.913,377.999 351.112,379.679 347.753,379.679L347.76,379.68Z" style="fill-rule:nonzero;"/>
        <g id="w">
        </g>
        <g id="b">
        </g>
        <g id="a">
        </g>
        <g id="d">
        </g>
        <g id="c">
        </g>
        <g id="a1" serif:id="a">
        </g>
        <g id="f">
        </g>
        <g id="j">
        </g>
        <g id="i">
        </g>
        <g id="h">
        </g>
        <g id="v">
        </g>
        <g id="d1" serif:id="d">
        </g>
        <g id="u">
        </g>
        <g id="b1" serif:id="b">
        </g>
        <g id="t">
        </g>
        <g id="f1" serif:id="f">
        </g>
        <g id="d2" serif:id="d">
        </g>
        <g id="g">
        </g>
        <g id="s">
        </g>
        <g id="r">
        </g>
        <g id="b2" serif:id="b">
        </g>
        <g id="e">
        </g>
        <g id="g1" serif:id="g">
        </g>
        <g id="c1" serif:id="c">
        </g>
        <g id="q">
        </g>
        <g id="a2" serif:id="a">
        </g>
        <g id="p">
        </g>
        <g id="e1" serif:id="e">
        </g>
        <g id="o">
        </g>
        <g id="n">
        </g>
        <g id="m">
        </g>
        <g id="b3" serif:id="b">
        </g>
        <g id="e2" serif:id="e">
        </g>
        <g id="l">
        </g>
        <g id="a3" serif:id="a">
        </g>
        <g id="k">
        </g>
        <g id="c2" serif:id="c">
        </g>
    </g>
</svg>
