<?xml version="1.0" encoding="UTF-8" standalone="no"?>
<!DOCTYPE svg PUBLIC "-//W3C//DTD SVG 1.1//EN" "http://www.w3.org/Graphics/SVG/1.1/DTD/svg11.dtd">
<svg width="100%" height="100%" viewBox="0 0 537 492" version="1.1" xmlns="http://www.w3.org/2000/svg" xmlns:xlink="http://www.w3.org/1999/xlink" xml:space="preserve" xmlns:serif="http://www.serif.com/" style="fill-rule:evenodd;clip-rule:evenodd;stroke-linejoin:round;stroke-miterlimit:2;">
    <g transform="matrix(1,0,0,1,-86,-69)">
        <path d="M572.67,486.19L317.79,486.19C308.513,486.19 300.989,478.667 300.989,469.389L300.989,455.002L298.462,457.736C291.083,465.729 281.032,469.775 270.95,469.775C267.629,469.775 264.356,469.131 261.133,468.217C259.368,467.826 257.629,467.248 255.942,466.506C254.977,466.084 254.036,465.611 253.102,465.1C251.969,464.424 250.852,463.709 249.797,462.846L244.047,458.139L191.106,414.815C179.231,405.104 178.028,387.186 188.978,375.956C198.684,366.003 214.802,366.077 225.559,374.882L252.618,397.023L311.513,334.183C318.248,324.929 327.771,317.831 338.853,314.081C356.15,339.296 385.15,355.882 417.966,355.882C435.751,355.882 452.329,350.886 466.618,342.405C473.427,338.369 479.665,333.522 485.259,327.983C489.588,323.697 493.623,319.115 497.079,314.081C512.501,319.295 524.795,331.054 530.834,346.022L587.747,461.982C593.232,473.146 585.103,486.185 572.67,486.185L572.67,486.19ZM350.13,311.58C365.739,332.049 390.298,345.338 417.966,345.338C445.63,345.338 470.193,332.049 485.802,311.58C496.747,297.225 503.329,279.373 503.329,259.967C503.329,212.893 465.036,174.608 417.97,174.608C370.904,174.608 332.611,212.897 332.611,259.967C332.603,279.373 339.185,297.225 350.131,311.58L350.13,311.58ZM185.1,359.346C145.33,359.346 113.096,327.108 113.096,287.342C113.096,247.572 145.334,215.338 185.1,215.338C190.432,215.338 195.612,215.959 200.616,217.061L204.421,210.471C205.862,207.975 209.05,207.123 211.546,208.561L222.577,214.928C224.659,212.561 227.003,210.541 229.706,209.127C237.463,205.068 246.522,206.115 256.593,212.244C267.718,218.994 277.695,220.998 286.245,218.201C288.518,217.459 290.487,216.35 292.323,215.135L289.916,209.076L302.283,204.17L290.068,198.897L293.197,191.654L305.412,196.928L300.502,184.561L307.838,181.647L312.748,194.018L318.022,181.803L325.264,184.932L319.99,197.147L332.357,192.236L335.272,199.572L322.905,204.479L335.12,209.752L331.991,216.994L319.776,211.721L324.686,224.088L317.35,227.002L312.44,214.635L307.166,226.85L299.924,223.721L303.002,216.592C299.44,220.225 294.756,223.705 288.779,225.678C277.927,229.272 265.717,227.018 252.498,218.994C244.842,214.342 238.58,213.405 233.369,216.123C232.002,216.838 230.752,217.83 229.576,218.975L239.951,224.967C242.443,226.405 243.299,229.596 241.857,232.088L238.057,238.674C249.85,251.498 257.112,268.557 257.112,287.35C257.104,327.108 224.866,359.346 185.1,359.346L185.1,359.346ZM185.1,343.76C216.209,343.76 241.522,318.451 241.522,287.342C241.522,256.233 216.213,230.92 185.1,230.92C153.991,230.92 128.682,256.229 128.682,287.342C128.678,318.451 153.991,343.76 185.1,343.76ZM185.1,333.502C159.647,333.502 138.936,312.791 138.936,287.338C138.936,261.885 159.647,241.174 185.1,241.174C210.553,241.174 231.264,261.885 231.264,287.338C231.264,312.795 210.553,333.502 185.1,333.502ZM185.385,292.791L211.073,292.791C213.69,292.791 215.808,290.67 215.808,288.057C215.808,285.439 213.686,283.322 211.073,283.322L190.12,283.322L190.12,255.693C190.12,253.076 187.999,250.959 185.386,250.959C182.769,250.959 180.651,253.08 180.651,255.693L180.651,288.06C180.651,290.674 182.769,292.791 185.386,292.791L185.385,292.791Z" style="fill-rule:nonzero;"/>
        <g id="v">
        </g>
        <g id="d">
        </g>
        <g id="a">
        </g>
        <g id="j">
        </g>
        <g id="c">
        </g>
        <g id="a1" serif:id="a">
        </g>
        <g id="i">
        </g>
        <g id="h">
        </g>
        <g id="g">
        </g>
        <g id="f">
        </g>
        <g id="e">
        </g>
        <g id="u">
        </g>
        <g id="t">
        </g>
        <g id="b">
        </g>
        <g id="e1" serif:id="e">
        </g>
        <g id="a2" serif:id="a">
        </g>
        <g id="s">
        </g>
        <g id="d1" serif:id="d">
        </g>
        <g id="b1" serif:id="b">
        </g>
        <g id="r">
        </g>
        <g id="c1" serif:id="c">
        </g>
        <g id="q">
        </g>
        <g id="a3" serif:id="a">
        </g>
        <g id="p">
        </g>
        <g id="b2" serif:id="b">
        </g>
        <g id="o">
        </g>
        <g id="n">
        </g>
        <g id="m">
        </g>
        <g id="d2" serif:id="d">
        </g>
        <g id="b3" serif:id="b">
        </g>
        <g id="l">
        </g>
        <g id="a4" serif:id="a">
        </g>
        <g id="k">
        </g>
        <g id="c2" serif:id="c">
        </g>
    </g>
</svg>
